<svg width="216px" height="216px" viewBox="-1.28 -1.28 18.56 18.56"
  xmlns="http://www.w3.org/2000/svg" fill="#bababa" class="bi bi-plus-circle" stroke="#bababa" stroke-width="0.304" transform="matrix(1, 0, 0, 1, 0, 0)">
  <g id="SVGRepo_bgCarrier" stroke-width="0"></g>
  <g id="SVGRepo_tracerCarrier" stroke-linecap="round" stroke-linejoin="round"></g>
  <g id="SVGRepo_iconCarrier">
    <path d="M8 15A7 7 0 1 1 8 1a7 7 0 0 1 0 14zm0 1A8 8 0 1 0 8 0a8 8 0 0 0 0 16z"></path>
    <path d="M8 4a.5.5 0 0 1 .5.5v3h3a.5.5 0 0 1 0 1h-3v3a.5.5 0 0 1-1 0v-3h-3a.5.5 0 0 1 0-1h3v-3A.5.5 0 0 1 8 4z"></path>
  </g>
</svg>