<?xml version="1.0" standalone="no"?>
<!DOCTYPE svg PUBLIC "-//W3C//DTD SVG 20010904//EN"
 "http://www.w3.org/TR/2001/REC-SVG-20010904/DTD/svg10.dtd">
<svg version="1.0" xmlns="http://www.w3.org/2000/svg"
 width="1920.000000pt" height="1080.000000pt" viewBox="0 0 1920.000000 1080.000000"
 preserveAspectRatio="xMidYMid meet">
<metadata>
Created by potrace 1.16, written by Peter Selinger 2001-2019
</metadata>
<g transform="translate(0.000000,1080.000000) scale(0.100000,-0.100000)"
fill="#000000" stroke="none">
<path d="M0 5400 l0 -5400 9600 0 9600 0 0 5400 0 5400 -9600 0 -9600 0 0
-5400z m15826 5296 c13 -18 77 -209 114 -341 13 -44 37 -129 56 -190 91 -305
116 -477 118 -820 1 -252 1 -252 -40 -436 -5 -23 5 -36 87 -110 195 -177 226
-206 346 -332 179 -186 289 -331 386 -509 19 -35 43 -79 54 -98 134 -238 204
-482 225 -785 l3 -40 638 -2 c708 -2 708 -2 818 -69 32 -19 68 -47 79 -61 25
-32 27 -95 3 -119 -33 -33 -118 -81 -193 -110 l-75 -29 -639 3 c-471 2 -642 0
-652 -9 -8 -6 -14 -30 -14 -54 0 -23 -16 -94 -35 -156 -19 -63 -35 -119 -35
-126 0 -25 33 -35 255 -73 165 -28 177 -30 220 -40 84 -19 454 -100 555 -121
373 -78 492 -130 521 -229 10 -31 9 -49 0 -82 -17 -55 -54 -90 -126 -118 -53
-22 -76 -24 -205 -24 -115 0 -163 5 -235 22 -49 13 -148 36 -220 53 -71 17
-215 54 -320 81 -349 92 -599 146 -626 136 -8 -3 -27 -31 -44 -63 -38 -73 -90
-132 -168 -190 -34 -25 -69 -52 -77 -58 -8 -7 -32 -25 -52 -41 -21 -16 -38
-33 -38 -38 0 -9 55 -101 122 -206 39 -60 117 -233 151 -332 96 -283 122 -442
122 -740 -1 -186 -5 -246 -22 -345 -44 -244 -151 -526 -271 -721 -35 -56 -110
-163 -122 -174 -3 -3 -49 -59 -102 -125 -53 -66 -111 -133 -129 -150 -81 -72
-208 -187 -257 -234 -107 -101 -358 -306 -466 -381 -61 -41 -136 -94 -166
-116 -30 -23 -91 -61 -135 -85 -44 -24 -93 -52 -110 -61 -16 -10 -115 -61
-218 -113 -336 -170 -803 -362 -1127 -461 -63 -20 -139 -42 -169 -50 -71 -19
-141 -50 -141 -63 0 -11 163 -66 363 -121 147 -40 447 -142 592 -200 131 -52
293 -139 377 -202 132 -100 242 -281 203 -335 -15 -20 -24 -20 -515 -16 l-255
3 -106 102 c-159 154 -293 225 -644 343 -255 86 -460 132 -822 186 -82 12
-185 7 -388 -21 -38 -5 -167 -21 -285 -35 -309 -36 -484 -62 -656 -96 -83 -16
-205 -39 -270 -50 -66 -11 -141 -24 -169 -29 -27 -5 -115 -20 -195 -34 -80
-14 -173 -35 -206 -45 -34 -11 -90 -23 -124 -27 -119 -13 -36 -24 195 -24 127
0 289 -5 360 -10 143 -11 324 1 411 26 239 68 836 82 1279 29 338 -40 398 -56
618 -167 164 -82 235 -136 205 -154 -24 -15 -1157 -25 -2058 -18 -520 4 -2080
6 -3466 5 -2043 -2 -2523 -1 -2529 10 -14 22 83 100 190 153 290 141 591 188
1200 190 335 1 543 -12 1070 -65 176 -17 398 -22 525 -9 69 6 197 14 285 17
156 6 159 7 110 19 -27 8 -66 14 -85 14 -36 0 -264 34 -470 69 -138 24 -334
52 -610 86 -113 14 -241 32 -285 40 -44 8 -111 19 -150 25 -72 10 -254 38
-430 65 -290 46 -425 55 -522 35 -26 -5 -79 -14 -118 -20 -514 -79 -601 -102
-860 -231 -258 -128 -415 -254 -415 -333 0 -18 -5 -37 -12 -44 -16 -16 -749
-17 -779 -2 -38 21 -14 122 47 197 138 168 394 350 669 476 239 109 396 157
610 188 130 18 131 24 17 64 -37 13 -123 44 -192 70 -69 25 -159 58 -200 72
-175 59 -328 128 -702 314 -523 260 -811 443 -1215 771 -63 51 -379 368 -428
429 -173 214 -374 572 -439 779 -15 47 -33 105 -41 130 -60 190 -83 443 -66
735 15 245 42 381 116 585 31 85 127 275 160 315 42 53 56 80 49 98 -3 8 -35
37 -72 63 -92 67 -178 149 -218 210 -19 28 -34 55 -34 60 0 5 -11 21 -25 36
-20 22 -30 26 -48 18 -12 -4 -76 -18 -142 -30 -221 -40 -408 -82 -585 -130
-100 -27 -211 -55 -285 -70 -33 -7 -76 -17 -95 -24 -19 -6 -93 -11 -165 -11
-118 0 -137 3 -210 29 -90 33 -120 50 -152 86 -75 84 38 203 257 270 52 16
214 54 360 84 146 31 315 67 375 81 210 49 390 86 459 95 38 4 73 13 78 18 7
7 -2 38 -26 94 -19 46 -43 114 -53 151 -11 41 -23 68 -33 70 -8 2 -269 2 -580
-1 -657 -5 -691 -2 -842 70 -109 51 -163 105 -154 153 8 41 81 106 164 147
l67 33 680 5 680 5 6 110 c10 168 51 329 143 557 47 115 82 191 115 248 82
138 119 194 198 295 126 161 154 195 248 294 125 133 163 166 275 245 119 83
120 85 85 201 -13 46 -19 108 -22 266 -6 244 7 449 42 654 29 170 38 203 105
405 104 313 124 362 152 383 30 23 -27 24 548 -18 471 -34 710 -60 1005 -105
72 -11 162 -25 200 -30 305 -44 536 -85 675 -120 41 -11 140 -35 220 -54 80
-19 185 -49 235 -65 49 -17 96 -31 104 -31 8 0 41 13 75 29 114 53 432 127
810 186 122 19 248 40 281 46 33 5 87 14 120 19 33 5 103 16 156 24 54 9 207
27 340 40 569 57 847 70 1524 70 858 1 1294 -29 1970 -133 33 -5 123 -19 200
-30 284 -41 784 -144 965 -197 262 -78 240 -76 341 -30 136 62 495 143 954
216 72 11 150 25 175 30 227 45 535 84 855 110 266 21 580 50 650 60 161 23
242 22 261 -4z"/>
<path d="M9046 10270 c-132 -5 -330 -16 -440 -25 -308 -25 -940 -99 -1071
-125 -27 -6 -174 -35 -325 -65 -255 -50 -411 -87 -760 -181 -226 -60 -275 -74
-342 -100 l-47 -18 -38 30 c-21 17 -57 41 -81 53 -77 40 -333 117 -497 150
-33 7 -78 16 -100 21 -22 5 -67 13 -100 19 -33 6 -132 25 -220 42 -88 17 -187
35 -220 39 -33 5 -139 20 -236 34 -228 33 -711 90 -769 90 l-44 1 -12 -85
c-12 -87 -41 -226 -49 -239 -2 -4 -12 -57 -22 -117 -14 -88 -18 -170 -18 -429
0 -375 6 -418 65 -484 21 -24 37 -48 34 -54 -3 -7 -40 -38 -82 -69 -112 -82
-154 -120 -390 -353 -156 -153 -241 -246 -316 -345 -88 -117 -196 -287 -196
-310 0 -4 -9 -18 -19 -32 -49 -62 -160 -302 -199 -428 -32 -107 -55 -275 -55
-415 0 -135 20 -277 62 -420 23 -80 88 -263 102 -285 5 -8 15 -30 24 -48 8
-18 39 -70 70 -116 30 -46 55 -88 55 -95 0 -6 5 -11 10 -11 6 0 15 -10 20 -22
18 -46 183 -243 344 -413 53 -55 96 -108 96 -117 0 -9 -10 -24 -22 -33 -56
-39 -191 -182 -219 -234 -17 -31 -46 -96 -66 -146 -159 -414 -164 -727 -18
-1230 45 -156 99 -268 208 -431 109 -166 179 -258 252 -334 91 -95 299 -286
400 -366 27 -21 81 -65 119 -96 80 -67 282 -204 411 -278 617 -358 946 -505
1565 -701 313 -100 411 -123 905 -215 398 -75 448 -82 739 -114 287 -31 458
-53 556 -71 30 -5 82 -14 115 -19 33 -5 79 -12 103 -16 26 -4 42 -3 42 3 0 6
-82 91 -182 189 -412 404 -717 711 -783 787 -38 45 -124 136 -191 202 -66 66
-165 170 -219 230 -54 61 -120 133 -146 160 -25 28 -66 72 -90 100 -24 27 -75
81 -113 120 -74 76 -207 227 -287 327 -28 35 -126 140 -218 233 -266 271 -401
414 -471 500 -35 44 -107 123 -158 177 -52 53 -100 106 -109 117 -26 38 8 34
128 -13 182 -73 317 -99 597 -116 84 -5 170 -14 191 -20 56 -15 112 -60 177
-142 31 -40 155 -172 274 -293 119 -121 250 -263 291 -315 82 -104 269 -317
443 -505 171 -184 266 -292 340 -385 60 -75 272 -296 465 -484 36 -35 95 -95
132 -132 36 -38 123 -123 195 -189 165 -152 274 -257 438 -421 72 -72 190
-183 262 -247 162 -144 163 -144 261 -54 191 175 1147 1155 1339 1371 43 49
121 132 173 185 51 53 125 134 164 181 38 47 75 90 81 95 19 17 189 208 238
265 25 31 83 96 128 145 46 50 105 117 132 150 28 33 71 83 97 110 25 28 87
95 136 149 157 173 438 457 467 472 26 13 94 23 327 44 58 5 153 14 211 19 87
9 255 44 358 76 18 6 22 3 22 -12 0 -22 -21 -48 -155 -198 -49 -55 -103 -116
-120 -135 -16 -19 -98 -105 -181 -190 -182 -187 -336 -354 -425 -464 -37 -44
-101 -113 -142 -153 -41 -39 -98 -100 -127 -135 -82 -98 -149 -176 -221 -253
-107 -115 -270 -293 -328 -359 -62 -70 -231 -255 -306 -335 -27 -29 -72 -74
-100 -100 -27 -25 -88 -86 -134 -136 -47 -49 -183 -187 -303 -306 -120 -119
-218 -223 -218 -231 0 -31 -34 -32 595 31 348 35 425 45 595 72 431 70 1020
199 1222 268 46 16 157 55 248 86 91 31 210 76 265 100 55 24 154 66 220 94
309 128 530 241 810 411 134 81 218 139 485 334 116 84 435 393 527 511 44 55
151 216 171 255 7 14 23 43 35 65 25 44 65 121 90 175 46 99 101 284 128 435
19 105 21 144 16 310 -9 316 -60 532 -189 803 -27 56 -97 127 -186 185 -40 26
-72 51 -72 56 0 5 17 20 38 32 20 13 57 46 82 73 25 28 54 60 65 71 12 11 43
47 70 80 28 33 60 71 73 85 12 14 70 95 127 180 57 85 121 180 143 210 44 63
74 117 97 175 28 68 83 242 100 318 10 39 24 95 33 122 19 62 28 320 14 390
-21 103 -103 341 -142 414 -5 9 -34 68 -65 133 -31 64 -67 133 -80 153 -14 20
-25 38 -25 41 0 2 -29 44 -64 92 -35 49 -89 126 -119 173 -38 56 -117 145
-239 269 -166 168 -275 262 -508 438 -36 27 -66 56 -68 65 -2 9 15 38 37 64
32 39 44 65 62 138 21 82 23 115 23 370 1 292 -5 346 -59 540 -30 110 -55 213
-55 232 0 42 -19 45 -162 29 -619 -72 -823 -102 -1198 -176 -208 -42 -300 -65
-530 -137 -164 -51 -241 -84 -323 -137 -32 -20 -65 -36 -75 -36 -9 0 -53 14
-97 30 -258 98 -508 170 -865 248 -338 74 -345 76 -555 107 -93 14 -213 32
-265 40 -139 21 -390 49 -640 70 -403 35 -1027 50 -1454 35z m-1999 -1385
c238 -23 622 -86 821 -135 177 -43 607 -188 750 -253 188 -85 433 -237 563
-349 123 -105 257 -247 284 -298 15 -30 36 -42 52 -32 5 4 37 45 70 92 95 134
229 255 393 353 52 32 122 75 155 96 86 54 283 156 380 196 283 117 477 172
905 254 633 122 1261 120 2055 -4 468 -73 1145 -313 1435 -508 219 -147 504
-398 576 -507 13 -19 41 -60 63 -90 154 -210 282 -576 283 -810 1 -180 -51
-388 -144 -575 -56 -110 -216 -358 -289 -445 -234 -279 -886 -739 -1284 -905
-49 -21 -119 -50 -155 -66 -90 -38 -291 -116 -332 -127 -18 -5 -125 -40 -237
-76 -208 -68 -241 -77 -511 -147 -85 -22 -200 -53 -255 -69 -128 -37 -267 -67
-685 -151 -126 -25 -162 -32 -380 -63 -102 -15 -246 -36 -320 -47 -177 -25
-495 -65 -640 -78 -63 -6 -169 -17 -235 -23 -161 -17 -1197 -17 -1525 0 -469
24 -607 35 -840 68 -544 78 -592 86 -1150 194 -242 47 -306 62 -460 106 -63
18 -202 55 -308 83 -313 83 -698 209 -847 276 -27 13 -104 46 -170 73 -132 55
-250 107 -278 123 -10 5 -102 52 -205 103 -103 52 -226 117 -272 146 -47 28
-98 59 -114 68 -76 44 -352 263 -475 377 -69 64 -307 362 -352 440 -130 224
-192 452 -190 692 2 275 60 505 174 698 168 283 390 517 659 696 399 265 743
405 1228 503 666 134 788 147 1347 140 172 -3 379 -11 460 -19z"/>
<path d="M6250 7813 c-19 -1 -84 -8 -145 -13 -132 -13 -259 -38 -460 -92 -219
-58 -315 -92 -453 -160 -156 -77 -271 -158 -386 -273 -105 -104 -165 -204
-196 -327 -25 -97 -25 -155 0 -269 40 -180 121 -297 295 -428 185 -140 395
-254 577 -315 326 -109 586 -154 933 -163 257 -7 362 3 625 59 229 48 371 98
592 209 180 90 246 138 378 269 154 154 229 300 230 442 0 104 -64 305 -132
411 -93 145 -466 390 -746 491 -110 39 -346 102 -452 120 -208 35 -514 53
-660 39z m83 -428 c96 -33 192 -96 229 -150 31 -46 38 -114 13 -135 -8 -7 -15
-17 -15 -22 0 -16 -48 -69 -90 -99 -56 -41 -127 -74 -209 -99 -65 -20 -88 -22
-210 -18 -171 7 -240 27 -352 105 -67 46 -119 129 -119 189 0 86 154 200 335
246 109 28 313 19 418 -17z m987 -490 c139 -47 203 -131 163 -214 -47 -96
-239 -150 -488 -137 -130 7 -194 22 -261 61 -51 30 -68 56 -66 104 3 72 96
158 217 200 52 18 80 20 205 18 129 -3 154 -6 230 -32z"/>
<path d="M12340 7803 c-340 -33 -707 -131 -952 -253 -146 -74 -211 -115 -313
-202 -134 -113 -187 -179 -247 -303 l-43 -90 0 -145 c0 -129 3 -152 24 -210
71 -186 217 -351 416 -467 218 -127 447 -222 660 -274 462 -113 813 -123 1265
-38 122 24 340 81 411 108 315 121 655 377 746 561 97 195 106 320 38 521 -51
151 -125 240 -332 395 -211 160 -540 293 -883 357 -189 36 -615 58 -790 40z
m83 -409 c108 -24 203 -72 275 -138 l62 -58 0 -66 c0 -60 -3 -68 -37 -110
-104 -127 -323 -190 -571 -164 -199 21 -337 93 -390 203 -27 56 -28 79 -2 129
46 90 232 190 395 213 73 10 202 6 268 -9z m988 -529 c74 -38 129 -91 129
-125 0 -38 -62 -90 -149 -126 -57 -24 -81 -28 -171 -28 -99 -1 -107 1 -144 26
-75 52 -82 124 -18 199 53 61 98 79 210 79 80 0 100 -4 143 -25z"/>
<path d="M8674 6052 c-39 -2 -57 -9 -74 -27 -28 -29 -20 -45 51 -105 29 -25
105 -90 168 -145 64 -56 148 -125 186 -155 90 -69 130 -105 300 -268 157 -151
184 -169 218 -151 33 18 149 112 252 204 114 103 134 120 226 197 332 278 419
358 419 389 0 10 -15 26 -33 37 -31 20 -51 21 -847 24 -448 2 -838 2 -866 0z"/>
</g>
</svg>
